<?xml version="1.0" standalone="no"?><!DOCTYPE svg PUBLIC "-//W3C//DTD SVG 1.1//EN" "http://www.w3.org/Graphics/SVG/1.1/DTD/svg11.dtd"><svg t="1652506902693" class="icon" viewBox="0 0 1024 1024" version="1.1" xmlns="http://www.w3.org/2000/svg" p-id="1908" xmlns:xlink="http://www.w3.org/1999/xlink" width="200" height="200"><defs><style type="text/css">* { text-shadow: transparent 0px 0px 0px, rgba(0, 0, 0, 0.8) 0px 0px 0px !important; }
@font-face { font-family: feedback-iconfont; src: url("//at.alicdn.com/t/font_1031158_u69w8yhxdu.woff2?t=1630033759944") format("woff2"), url("//at.alicdn.com/t/font_1031158_u69w8yhxdu.woff?t=1630033759944") format("woff"), url("//at.alicdn.com/t/font_1031158_u69w8yhxdu.ttf?t=1630033759944") format("truetype"); }
</style></defs><path d="M498.4832 815.9232a60.2112 60.2112 0 0 1-18.8416-2.8672 61.44 61.44 0 0 1-40.96-48.3328l-23.3472-138.4448a20.0704 20.0704 0 0 0-16.7936-16.7936l-138.4448-23.3472a61.44 61.44 0 0 1-33.1776-104.0384l259.2768-259.2768A62.2592 62.2592 0 0 1 528.7936 204.8h228.9664A61.44 61.44 0 0 1 819.2 266.24v228.9664a62.2592 62.2592 0 0 1-18.0224 43.4176l-259.2768 259.2768a61.0304 61.0304 0 0 1-43.4176 18.0224zM528.7936 245.76a19.2512 19.2512 0 0 0-14.336 6.144l-259.2768 259.2768a20.48 20.48 0 0 0-5.3248 21.2992 21.2992 21.2992 0 0 0 16.384 13.9264l138.4448 22.9376a61.44 61.44 0 0 1 50.3808 50.3808l22.9376 138.4448a21.2992 21.2992 0 0 0 13.9264 16.384 20.48 20.48 0 0 0 20.8896-5.3248l259.2768-259.2768a19.2512 19.2512 0 0 0 6.144-14.336V266.24a20.48 20.48 0 0 0-20.48-20.48z" p-id="1909"></path><path d="M655.36 368.64m-40.96 0a40.96 40.96 0 1 0 81.92 0 40.96 40.96 0 1 0-81.92 0Z" p-id="1910"></path></svg>