<?xml version="1.0" standalone="no"?><!DOCTYPE svg PUBLIC "-//W3C//DTD SVG 1.1//EN" "http://www.w3.org/Graphics/SVG/1.1/DTD/svg11.dtd"><svg t="1653485588555" class="icon" viewBox="0 0 1024 1024" version="1.1" xmlns="http://www.w3.org/2000/svg" p-id="708" xmlns:xlink="http://www.w3.org/1999/xlink" width="200" height="200"><defs><style type="text/css">* { text-shadow: transparent 0px 0px 0px, rgba(0, 0, 0, 0.8) 0px 0px 0px !important; }
@font-face { font-family: feedback-iconfont; src: url("//at.alicdn.com/t/font_1031158_u69w8yhxdu.woff2?t=1630033759944") format("woff2"), url("//at.alicdn.com/t/font_1031158_u69w8yhxdu.woff?t=1630033759944") format("woff"), url("//at.alicdn.com/t/font_1031158_u69w8yhxdu.ttf?t=1630033759944") format("truetype"); }
</style></defs><path d="M614.693 856.21l-304.275-302.07999999a61.879 61.879 0 0 1-18.285-45.49500001 61.879 61.879 0 0 1 18.285-45.494L614.693 161.06c24.283-24.138 64.07300001-24.284 88.502-0.14700001l-0.438-0.43899999 2.925 3.072a61.66 61.66 0 0 1-0.146 80.311l-3.51 3.804-262.72999999 260.827 262.72999999 260.974a61.908 61.908 0 0 1 3.65599999 84.114l-2.92499999 3.218-3.511 3.219c-24.576 20.47999999-61.587 19.017-84.553-3.80399999z" p-id="709"></path></svg>