<?xml version="1.0" standalone="no"?><!DOCTYPE svg PUBLIC "-//W3C//DTD SVG 1.1//EN" "http://www.w3.org/Graphics/SVG/1.1/DTD/svg11.dtd"><svg t="1653185922639" class="icon" viewBox="0 0 1024 1024" version="1.1" xmlns="http://www.w3.org/2000/svg" p-id="2987" xmlns:xlink="http://www.w3.org/1999/xlink" width="200" height="200"><defs><style type="text/css">* { text-shadow: transparent 0px 0px 0px, rgba(0, 0, 0, 0.8) 0px 0px 0px !important; }
@font-face { font-family: feedback-iconfont; src: url("//at.alicdn.com/t/font_1031158_u69w8yhxdu.woff2?t=1630033759944") format("woff2"), url("//at.alicdn.com/t/font_1031158_u69w8yhxdu.woff?t=1630033759944") format("woff"), url("//at.alicdn.com/t/font_1031158_u69w8yhxdu.ttf?t=1630033759944") format("truetype"); }
</style></defs><path d="M409.307429 167.789714l304.274285 302.08a61.878857 61.878857 0 0 1 18.285715 45.494857 61.878857 61.878857 0 0 1-18.285715 45.494858l-304.274285 302.08c-24.283429 24.137143-64.073143 24.283429-88.502858 0.146285l0.438858 0.438857-2.925715-3.072a61.659429 61.659429 0 0 1 0.146286-80.310857l3.510857-3.803428 262.729143-260.827429L321.974857 254.537143a61.908114 61.908114 0 0 1-3.657143-84.114286l2.925715-3.218286 3.510857-3.218285c24.576-20.48 61.586286-19.017143 84.553143 3.803428z" p-id="2988"></path></svg>