<?xml version="1.0" standalone="no"?><!DOCTYPE svg PUBLIC "-//W3C//DTD SVG 1.1//EN" "http://www.w3.org/Graphics/SVG/1.1/DTD/svg11.dtd"><svg t="1652699827805" class="icon" viewBox="0 0 1024 1024" version="1.1" xmlns="http://www.w3.org/2000/svg" p-id="1972" xmlns:xlink="http://www.w3.org/1999/xlink" width="200" height="200"><defs><style type="text/css">* { text-shadow: transparent 0px 0px 0px, rgba(0, 0, 0, 0.8) 0px 0px 0px !important; }
@font-face { font-family: feedback-iconfont; src: url("//at.alicdn.com/t/font_1031158_u69w8yhxdu.woff2?t=1630033759944") format("woff2"), url("//at.alicdn.com/t/font_1031158_u69w8yhxdu.woff?t=1630033759944") format("woff"), url("//at.alicdn.com/t/font_1031158_u69w8yhxdu.ttf?t=1630033759944") format("truetype"); }
</style></defs><path d="M1024.25175 0l-209.92 23.04L883.45175 92.16 655.61175 370.688 419.06775 152.064c-15.872-14.848-40.96-14.848-57.344-0.512L14.07575 465.408C-3.33225 481.28-4.86825 508.416 11.00375 525.824c8.192 9.216 19.968 13.824 31.744 13.824 10.24 0 20.48-3.584 28.672-10.752l318.464-287.744 241.152 222.72c8.704 8.192 20.48 11.776 31.744 11.264 11.776-1.024 22.528-6.656 30.208-15.36l250.88-306.688 57.344 57.344L1024.25175 0z m0 0M133.37175 1024H30.97175c-16.896 0-30.72-13.824-30.72-30.72v-348.16c0-16.896 13.824-30.72 30.72-30.72h102.4c16.896 0 30.72 13.824 30.72 30.72v348.16c0 16.896-13.824 30.72-30.72 30.72z" p-id="1973"></path><path d="M420.09175 1024H317.69175c-16.896 0-30.72-13.824-30.72-30.72V440.32c0-16.896 13.824-30.72 30.72-30.72h102.4c16.896 0 30.72 13.824 30.72 30.72v552.96c0 16.896-13.824 30.72-30.72 30.72zM706.81175 1024h-102.4c-16.896 0-30.72-13.824-30.72-30.72v-399.36c0-16.896 13.824-30.72 30.72-30.72h102.4c16.896 0 30.72 13.824 30.72 30.72v399.36c0 16.896-13.824 30.72-30.72 30.72zM993.53175 1024h-102.4c-16.896 0-30.72-13.824-30.72-30.72V337.92c0-16.896 13.824-30.72 30.72-30.72h102.4c16.896 0 30.72 13.824 30.72 30.72v655.36c0 16.896-13.824 30.72-30.72 30.72z" p-id="1974"></path></svg>